<svg xmlns="http://www.w3.org/2000/svg" viewBox="0 0 520 100" width="520" height="100">
  <!-- Left piece (lighter gray for dark backgrounds) -->
  <path d="M0,4 L44,4 L38,22 L46,42 L38,62 L44,82 L0,82 Z" fill="#94a3b8"/>
  <line x1="6" y1="22" x2="36" y2="22" stroke="rgba(255,255,255,0.32)" stroke-width="2" stroke-linecap="round"/>
  <line x1="6" y1="42" x2="40" y2="42" stroke="rgba(255,255,255,0.22)" stroke-width="1.5" stroke-linecap="round"/>
  <line x1="6" y1="62" x2="36" y2="62" stroke="rgba(255,255,255,0.22)" stroke-width="1.5" stroke-linecap="round"/>

  <!-- Right piece (blue) -->
  <path d="M49,4 L96,4 L96,82 L49,82 L43,62 L51,42 L43,22 L49,4 Z" fill="#60a5fa"/>
  <line x1="55" y1="22" x2="91" y2="22" stroke="rgba(255,255,255,0.35)" stroke-width="2" stroke-linecap="round"/>
  <line x1="55" y1="42" x2="91" y2="42" stroke="rgba(255,255,255,0.25)" stroke-width="1.5" stroke-linecap="round"/>
  <line x1="55" y1="62" x2="91" y2="62" stroke="rgba(255,255,255,0.25)" stroke-width="1.5" stroke-linecap="round"/>

  <!-- Wordmark -->
  <text x="114" y="56" font-family="'Inter', -apple-system, BlinkMacSystemFont, sans-serif" font-size="46" font-weight="800" fill="#60a5fa" letter-spacing="-0.03em">Remnant</text>
  <text x="116" y="82" font-family="'Inter', -apple-system, BlinkMacSystemFont, sans-serif" font-size="22" font-weight="500" fill="#94a3b8" letter-spacing="0.12em">EXCHANGE</text>
</svg>
